<svg width="20" height="20" viewBox="0 0 20 20" fill="none" xmlns="http://www.w3.org/2000/svg">
<path opacity="0.988987" d="M9.9991 1.67847C5.39661 1.67847 1.66577 5.4093 1.66577 10.0118C1.66577 14.6143 5.39661 18.3451 9.9991 18.3451C14.6016 18.3451 18.3324 14.6143 18.3324 10.0118C18.3324 5.4093 14.6016 1.67847 9.9991 1.67847ZM9.9991 3.34513C13.6808 3.34513 16.6658 6.33013 16.6658 10.0118C16.6658 13.6935 13.6808 16.6785 9.9991 16.6785C6.31744 16.6785 3.33244 13.6935 3.33244 10.0118C3.33244 6.33013 6.31744 3.34513 9.9991 3.34513ZM9.9991 5.84513C9.5391 5.84513 9.16577 6.21847 9.16577 6.67847C9.16577 7.13847 9.5391 7.5118 9.9991 7.5118C10.4591 7.5118 10.8324 7.13847 10.8324 6.67847C10.8324 6.21847 10.4591 5.84513 9.9991 5.84513ZM9.16577 8.34513C8.70577 8.34513 8.33244 8.71847 8.33244 9.17847C8.33244 9.58013 8.63161 9.88012 9.00911 9.96012L8.51493 12.3551C8.3216 13.3226 9.01327 14.1785 9.9991 14.1785H10.8324C11.2924 14.1785 11.6658 13.8051 11.6658 13.3451C11.6658 12.8851 11.2924 12.5118 10.8324 12.5118H10.1816L10.8066 9.33512C10.9099 8.81929 10.5249 8.34513 9.9991 8.34513C9.8941 8.34513 9.30077 8.34513 9.16577 8.34513Z" fill="#12131A"/>
</svg>
